<svg xmlns="http://www.w3.org/2000/svg" version="1.1" xmlns:xlink="http://www.w3.org/1999/xlink" xmlns:svgjs="http://svgjs.dev/svgjs" width="1500" height="1500" viewBox="0 0 1500 1500"><rect width="1500" height="1500" fill="#000000"></rect><g transform="matrix(0.6666666666666666,0,0,0.6666666666666666,250,250)"><svg viewBox="0 0 280 280" data-background-color="#000000" preserveAspectRatio="xMidYMid meet" height="1500" width="1500" xmlns="http://www.w3.org/2000/svg" xmlns:xlink="http://www.w3.org/1999/xlink"><g id="tight-bounds" transform="matrix(1,0,0,1,0,0)"><svg viewBox="0 0 280 280" height="280" width="280"><g><svg viewBox="0 0 280 280" height="280" width="280"><g><svg viewBox="0 0 280 280" height="280" width="280"><g id="textblocktransform"><svg viewBox="0 0 280 280" height="280" width="280" id="textblock"><g><svg viewBox="0 0 280 280" height="280" width="280"><g transform="matrix(1,0,0,1,57.50420886156945,57.50420886156945)"><svg viewBox="0 0 164.9915822768611 164.9915822768611" height="164.9915822768611" width="164.9915822768611"><g><circle r="82" cx="82.49579113843055" cy="82.49579113843055" fill="#f0cf90" data-fill-palette-color="accent"></circle></g></svg></g><g><path d="M128.753 28.207l-0.541-27.922 14.539-0.282c2.792-0.054 4.947 0.622 6.464 2.03 1.524 1.414 2.309 3.327 2.356 5.74v0c0.037 1.901-0.387 3.552-1.27 4.953-0.877 1.4-2.111 2.415-3.702 3.045v0l6.666 11.961-4.318 0.084-6.287-11.401-10.261 0.199 0.223 11.518zM132.333 13.234l10.461-0.203c1.522-0.029 2.72-0.502 3.594-1.416 0.88-0.908 1.305-2.15 1.275-3.726v0c-0.028-1.463-0.469-2.588-1.323-3.377-0.86-0.781-2.104-1.156-3.733-1.124v0l-10.461 0.202z" fill="#f0cf90" data-fill-palette-color="primary"></path><path d="M128.338 279.525l0.541-27.923 14.54 0.282c2.792 0.054 4.919 0.814 6.38 2.279 1.468 1.472 2.178 3.414 2.132 5.827v0c-0.037 1.901-0.524 3.535-1.462 4.9-0.931 1.365-2.203 2.332-3.817 2.899v0l6.198 12.211-4.318-0.084-5.84-11.635-10.262-0.199-0.223 11.518zM132.496 264.701l10.461 0.203c1.522 0.029 2.738-0.396 3.646-1.276 0.915-0.873 1.387-2.098 1.418-3.674v0c0.028-1.463-0.369-2.604-1.191-3.425-0.829-0.814-2.058-1.237-3.686-1.268v0l-10.461-0.203z" fill="#f0cf90" data-fill-palette-color="primary"></path><path d="M11.121 143.161c0-1.768 1.433-3.201 3.201-3.2 1.768 0 3.201 1.433 3.2 3.2 0 1.768-1.433 3.201-3.2 3.201-1.768 0-3.201-1.433-3.201-3.201z" fill="#f0cf90" data-fill-palette-color="primary"></path><path d="M262.478 143.161c0-1.768 1.433-3.201 3.2-3.2 1.768 0 3.201 1.433 3.201 3.2 0 1.768-1.433 3.201-3.201 3.201-1.768 0-3.201-1.433-3.2-3.201z" fill="#f0cf90" data-fill-palette-color="primary"></path></g></svg></g></svg></g></svg></g></svg></g><defs></defs></svg><rect width="280" height="280" fill="none" stroke="none" visibility="hidden"></rect></g></svg></g></svg>